<svg xmlns="http://www.w3.org/2000/svg" viewBox="0 0 24 24">
    <symbol id="icon-search" viewBox="0 0 24 24">
        <path d="M22.6,24a.62.62,0,0,1-.44-.18L15.4,17.22a9.28,9.28,0,0,1-5.91,2.11A9.58,9.58,0,0,1,0,9.67,9.58,9.58,0,0,1,9.49,0,9.58,9.58,0,0,1,19,9.67a9.71,9.71,0,0,1-1.91,5.82l6.73,6.58a.66.66,0,0,1,0,.93l-.74.79a.63.63,0,0,1-.46.2ZM9.47,2.39A7.23,7.23,0,0,0,2.31,9.68,7.23,7.23,0,0,0,9.47,17a7.23,7.23,0,0,0,7.16-7.29A7.23,7.23,0,0,0,9.47,2.39Z"/>
        <path d="M9.49,0A9.58,9.58,0,0,1,19,9.67a9.72,9.72,0,0,1-1.92,5.82h0l6.74,6.57a.67.67,0,0,1,0,.92l-.74.79a.64.64,0,0,1-.91,0l-6.75-6.58h0a9.28,9.28,0,0,1-5.9,2.1A9.58,9.58,0,0,1,0,9.67,9.58,9.58,0,0,1,9.49,0m0,17a7.24,7.24,0,0,0,7.17-7.3,7.25,7.25,0,0,0-7.17-7.3A7.25,7.25,0,0,0,2.3,9.68,7.24,7.24,0,0,0,9.47,17m0-17A9.58,9.58,0,0,0,0,9.67a9.57,9.57,0,0,0,9.49,9.66,9.32,9.32,0,0,0,5.91-2.1l6.75,6.58a.64.64,0,0,0,.93,0l.74-.79a.67.67,0,0,0,0-.94l-6.74-6.57A9.68,9.68,0,0,0,19,9.67,9.58,9.58,0,0,0,9.49,0Zm0,17A7.22,7.22,0,0,1,2.32,9.68,7.22,7.22,0,0,1,9.47,2.4a7.22,7.22,0,0,1,7.15,7.28A7.22,7.22,0,0,1,9.47,17Z"/>
    </symbol>
    <symbol id="icon-question" viewBox="0 0 24 24">
        <path d="M8.57,3.43A1.7,1.7,0,0,0,6.86,5.14a1.72,1.72,0,1,1-3.43,0A5.14,5.14,0,0,1,8.57,0h5.2a6.81,6.81,0,0,1,2.46,13.15l-3.37,1.31v1a1.72,1.72,0,0,1-3.43,0v-1a3.41,3.41,0,0,1,2.18-3.19L15,10a3.38,3.38,0,0,0-1.22-6.52ZM11.14,24a2.15,2.15,0,1,1,2.15-2.14A2.14,2.14,0,0,1,11.14,24Z"/>
    </symbol>
    <symbol id="icon-bookmark" viewBox="0 0 24 24">
        <path d="M3,1.26V23a1,1,0,0,0,.17.49,1.2,1.2,0,0,0,1.63.27l7.2-5,7.2,5a1.2,1.2,0,0,0,1.63-.27A1,1,0,0,0,21,23V1.26A1.25,1.25,0,0,0,19.74,0H4.26A1.25,1.25,0,0,0,3,1.26Z"/>
    </symbol>
    <symbol id="icon-check" viewBox="0 0 24 24">
        <path d="M22.69,5.65a.4.4,0,0,1,0,.58L10.58,17.9l0,0L9.19,19.25a.55.55,0,0,1-.78,0l-6.75-7a.41.41,0,0,1,0-.58l1.19-1.15a.4.4,0,0,1,.58,0l5.41,5.6L21,4.44a.41.41,0,0,1,.58,0Z"/>
    </symbol>
    <symbol id="icon-home" viewBox="0 0 24 24">
        <path d="M23.92,10.33l-.52.57a.31.31,0,0,1-.43,0L14.24,3.45a3.48,3.48,0,0,0-4.48,0L1,10.92a.31.31,0,0,1-.43,0l-.52-.57a.29.29,0,0,1,0-.41L11,.63,11.44.2a.88.88,0,0,1,1.12,0l.49.43L23.9,9.92A.29.29,0,0,1,23.92,10.33Zm-2.74.24L13.86,4.34a2.44,2.44,0,0,0-1.59-.59h-.59a2.42,2.42,0,0,0-1.59.59L2.81,10.57a.8.8,0,0,0-.28.61V23.6a.4.4,0,0,0,.41.4H8.16a.41.41,0,0,0,.42-.4V16.37a.3.3,0,0,1,.31-.3h6.22a.3.3,0,0,1,.31.3V23.6a.41.41,0,0,0,.42.4h5.22a.4.4,0,0,0,.41-.4V11.18A.78.78,0,0,0,21.18,10.57Z"/>
    </symbol>
    <symbol id="icon-list" viewBox="0 0 24 24">
        <path d="M22.57,2H1.43A1.43,1.43,0,0,0,0,3.42V20.58A1.43,1.43,0,0,0,1.43,22H22.57A1.43,1.43,0,0,0,24,20.58V3.42A1.43,1.43,0,0,0,22.57,2Zm-1.1,17.3a.69.69,0,0,1-.64.73H2.94a.69.69,0,0,1-.64-.73V4.84a.68.68,0,0,1,.64-.72H20.83a.68.68,0,0,1,.64.72ZM8.33,12a1,1,0,0,1,1-1h9.34a1,1,0,0,1,0,2H9.33A1,1,0,0,1,8.33,12Zm0-4.5a1,1,0,0,1,1-1h9.34a1,1,0,0,1,0,2H9.33A1,1,0,0,1,8.33,7.47Zm0,9a1,1,0,0,1,1-1h9.34a1,1,0,0,1,0,2H9.33A1,1,0,0,1,8.33,16.47Zm-3,1.46a1.35,1.35,0,0,1-1.26-1.44,1.35,1.35,0,0,1,1.26-1.43,1.45,1.45,0,0,1,0,2.87Zm0-4.46A1.35,1.35,0,0,1,4.07,12a1.35,1.35,0,0,1,1.26-1.43A1.36,1.36,0,0,1,6.6,12,1.36,1.36,0,0,1,5.33,13.47Zm0-4.54A1.35,1.35,0,0,1,4.07,7.5,1.35,1.35,0,0,1,5.33,6.06,1.36,1.36,0,0,1,6.6,7.5,1.36,1.36,0,0,1,5.33,8.93Z"/>
    </symbol>
    <symbol id="icon-loader" viewBox="0 0 24 24">
        <path d="M11 2v4c0 0.552 0.448 1 1 1s1-0.448 1-1v-4c0-0.552-0.448-1-1-1s-1 0.448-1 1zM11 18v4c0 0.552 0.448 1 1 1s1-0.448 1-1v-4c0-0.552-0.448-1-1-1s-1 0.448-1 1zM4.223 5.637l2.83 2.83c0.391 0.391 1.024 0.391 1.414 0s0.391-1.024 0-1.414l-2.83-2.83c-0.391-0.391-1.024-0.391-1.414 0s-0.391 1.024 0 1.414zM15.533 16.947l2.83 2.83c0.391 0.391 1.024 0.391 1.414 0s0.391-1.024 0-1.414l-2.83-2.83c-0.391-0.391-1.024-0.391-1.414 0s-0.391 1.024 0 1.414zM2 13h4c0.552 0 1-0.448 1-1s-0.448-1-1-1h-4c-0.552 0-1 0.448-1 1s0.448 1 1 1zM18 13h4c0.552 0 1-0.448 1-1s-0.448-1-1-1h-4c-0.552 0-1 0.448-1 1s0.448 1 1 1zM5.637 19.777l2.83-2.83c0.391-0.391 0.391-1.024 0-1.414s-1.024-0.391-1.414 0l-2.83 2.83c-0.391 0.391-0.391 1.024 0 1.414s1.024 0.391 1.414 0zM16.947 8.467l2.83-2.83c0.391-0.391 0.391-1.024 0-1.414s-1.024-0.391-1.414 0l-2.83 2.83c-0.391 0.391-0.391 1.024 0 1.414s1.024 0.391 1.414 0z"/>
    </symbol>
    <symbol id="icon-bookmarkslist" viewBox="0 0 24 24">
        <path d="M22.57,2H1.43A1.43,1.43,0,0,0,0,3.42V20.58A1.43,1.43,0,0,0,1.43,22H22.57A1.43,1.43,0,0,0,24,20.58V3.42A1.43,1.43,0,0,0,22.57,2Zm-1.1,17.3a.69.69,0,0,1-.64.73H2.94a.69.69,0,0,1-.64-.73V4.84a.68.68,0,0,1,.64-.72H20.83a.68.68,0,0,1,.64.72ZM8.33,12a1,1,0,0,1,1-1h9.34a1,1,0,0,1,0,2H9.33A1,1,0,0,1,8.33,12Zm11.34-4.5a1,1,0,0,1-1,1H5a1,1,0,0,1-.72-.3,1,1,0,0,1-.3-.72,1,1,0,0,1,1-1H18.67A1,1,0,0,1,19.67,7.47Zm-11.34,9a1,1,0,0,1,1-1h9.34a1,1,0,0,1,0,2H9.33A1,1,0,0,1,8.33,16.47ZM4.06,10.69v3.13a.14.14,0,0,0,0,.07.18.18,0,0,0,.24,0l1-.72,1,.72a.18.18,0,0,0,.24,0,.14.14,0,0,0,0-.07V10.69a.18.18,0,0,0-.18-.18H4.24A.18.18,0,0,0,4.06,10.69Zm0,4.22V18a.14.14,0,0,0,0,.07.18.18,0,0,0,.24,0l1-.72,1,.72a.18.18,0,0,0,.24,0,.14.14,0,0,0,0-.07V14.91a.19.19,0,0,0-.18-.19H4.24A.19.19,0,0,0,4.06,14.91Z"/>
    </symbol>
</svg>